<svg width="193" height="40" viewBox="0 0 193 40" fill="none" xmlns="http://www.w3.org/2000/svg">
<path d="M159.59 28.6871C159.301 28.6871 159.052 28.5869 158.844 28.3863C158.643 28.1778 158.543 27.9291 158.543 27.6403C158.543 27.3516 158.643 27.1069 158.844 26.9064C159.052 26.7058 159.301 26.6056 159.59 26.6056C159.879 26.6056 160.123 26.7058 160.324 26.9064C160.532 27.1069 160.637 27.3516 160.637 27.6403C160.637 27.9291 160.532 28.1778 160.324 28.3863C160.123 28.5869 159.879 28.6871 159.59 28.6871Z" fill="white"/>
<path d="M164.698 28.8074C163.96 28.8074 163.326 28.5989 162.797 28.1818C162.268 27.7566 161.935 27.151 161.798 26.3649L163.351 25.7393C163.391 26.1885 163.543 26.5574 163.808 26.8462C164.072 27.127 164.429 27.2673 164.879 27.2673C165.296 27.2673 165.645 27.1631 165.925 26.9545C166.214 26.746 166.359 26.4692 166.359 26.1243C166.359 25.8275 166.254 25.5788 166.046 25.3783C165.837 25.1778 165.48 24.9772 164.975 24.7767L164.554 24.6083C164.032 24.4077 163.607 24.123 163.278 23.754C162.949 23.377 162.785 22.8997 162.785 22.3222C162.785 21.8489 162.917 21.4198 163.182 21.0347C163.455 20.6497 163.824 20.3489 164.289 20.1323C164.754 19.9158 165.272 19.8075 165.841 19.8075C166.387 19.8075 166.848 19.9037 167.225 20.0962C167.602 20.2807 167.887 20.5133 168.079 20.7941C168.28 21.0748 168.408 21.3596 168.464 21.6484L166.972 22.2139C166.908 21.9331 166.768 21.7125 166.551 21.5521C166.343 21.3837 166.054 21.2994 165.685 21.2994C165.332 21.2994 165.031 21.3877 164.782 21.5641C164.534 21.7326 164.409 21.9652 164.409 22.262C164.409 22.5187 164.502 22.7353 164.686 22.9117C164.879 23.0882 165.187 23.2526 165.613 23.4051L166.106 23.5855C166.716 23.8182 167.181 24.123 167.502 24.5C167.83 24.877 167.995 25.3583 167.995 25.9438C167.995 26.4973 167.855 26.9906 167.574 27.4238C167.301 27.8569 166.916 28.1978 166.419 28.4465C165.921 28.6871 165.348 28.8074 164.698 28.8074Z" fill="white"/>
<path d="M172.361 28.8074C171.799 28.8074 171.298 28.6911 170.857 28.4585C170.424 28.2179 170.087 27.885 169.846 27.4599C169.605 27.0267 169.485 26.5294 169.485 25.9679C169.485 25.6791 169.521 25.3422 169.593 24.9572L170.46 20H172.084L171.157 25.2339C171.125 25.4345 171.109 25.623 171.109 25.7994C171.109 26.2566 171.23 26.6176 171.47 26.8823C171.719 27.139 172.088 27.2673 172.577 27.2673C173.115 27.2673 173.56 27.0909 173.913 26.7379C174.274 26.377 174.506 25.8917 174.611 25.2821L175.537 20H177.161L176.211 25.3783C176.01 26.5173 175.577 27.3756 174.911 27.9532C174.254 28.5227 173.403 28.8074 172.361 28.8074Z" fill="white"/>
<path d="M178.958 20H181.786C182.323 20 182.801 20.1083 183.218 20.3248C183.635 20.5334 183.956 20.8222 184.18 21.1912C184.413 21.5521 184.529 21.9532 184.529 22.3944C184.529 22.8676 184.429 23.3008 184.228 23.6938C184.028 24.0788 183.755 24.3997 183.41 24.6564C183.065 24.9131 182.684 25.0895 182.267 25.1858L182.231 25.27L183.915 28.5187L183.903 28.6149H182.135L180.474 25.3783H179.62L179.043 28.6149H177.43L178.958 20ZM181.389 23.8863C181.838 23.8863 182.199 23.774 182.472 23.5494C182.752 23.3168 182.893 22.9839 182.893 22.5508C182.893 22.2379 182.784 21.9853 182.568 21.7928C182.359 21.6002 182.079 21.504 181.726 21.504H180.306L179.885 23.8863H181.389Z" fill="white"/>
<path d="M186.584 20H192.047L191.77 21.5401H187.932L187.559 23.6337H191.012L190.747 25.1738H187.282L186.668 28.6149H185.056L186.584 20Z" fill="white"/>
<path d="M54.4251 29C52.9171 29 51.5856 28.5748 50.4305 27.7246C49.2754 26.8743 48.4652 25.6711 48 24.1149L51.0561 22.9117C51.2968 23.8262 51.7059 24.5561 52.2834 25.1016C52.861 25.647 53.5829 25.9198 54.4492 25.9198C55.1711 25.9198 55.7888 25.7433 56.3021 25.3903C56.8155 25.0214 57.0722 24.516 57.0722 23.8743C57.0722 23.2326 56.8235 22.7112 56.3262 22.3101C55.8449 21.893 54.9786 21.4518 53.7273 20.9866L52.6684 20.6016C51.5615 20.2166 50.615 19.631 49.8289 18.8449C49.0428 18.0428 48.6497 17.0401 48.6497 15.8369C48.6497 14.9385 48.8824 14.1203 49.3476 13.3823C49.8128 12.6444 50.4706 12.0668 51.3208 11.6497C52.1711 11.2166 53.1337 11 54.2085 11C55.7647 11 56.992 11.369 57.8903 12.1069C58.7887 12.8289 59.4064 13.6791 59.7433 14.6577L56.8797 15.861C56.7032 15.3315 56.3904 14.8904 55.9412 14.5374C55.508 14.1684 54.9465 13.984 54.2567 13.984C53.5508 13.984 52.9652 14.1524 52.5 14.4893C52.0508 14.8102 51.8262 15.2353 51.8262 15.7647C51.8262 16.2781 52.0428 16.7192 52.4759 17.0882C52.9091 17.4412 53.623 17.7861 54.6176 18.123L55.7005 18.4839C57.1925 18.9973 58.3315 19.6791 59.1176 20.5294C59.9198 21.3636 60.3208 22.4625 60.3208 23.8262C60.3208 24.9492 60.0321 25.9037 59.4545 26.6898C58.877 27.4599 58.131 28.0374 57.2166 28.4224C56.3182 28.8074 55.3877 29 54.4251 29Z" fill="white"/>
<path d="M67.3378 20.6016L61.5383 11.385H65.4126L68.8538 17.0882H69.0463L72.3672 11.385H76.2896L70.5864 20.6016V28.6149H67.3378V20.6016Z" fill="white"/>
<path d="M79.0715 11.385H82.8495L89.78 22.9358H89.9725L89.78 19.615V11.385H93.0046V28.6149H89.5875L82.272 16.4144H82.0795L82.272 19.7353V28.6149H79.0715V11.385Z" fill="white"/>
<path d="M97.4128 11.385H108.338V14.4652H100.661V18.4599H107.568V21.5401H100.661V25.5347H108.338V28.6149H97.4128V11.385Z" fill="white"/>
<path d="M112.159 11.385H118.439C119.562 11.385 120.557 11.6176 121.423 12.0829C122.306 12.5481 122.988 13.1979 123.469 14.0321C123.95 14.8503 124.191 15.7807 124.191 16.8235C124.191 17.9305 123.838 18.9171 123.132 19.7834C122.442 20.6337 121.568 21.2513 120.509 21.6363L120.485 21.8048L125.105 28.4224V28.6149H121.375L116.923 22.1417H115.407V28.6149H112.159V11.385ZM118.415 19.1577C119.153 19.1577 119.755 18.9331 120.22 18.4839C120.685 18.0347 120.918 17.4652 120.918 16.7754C120.918 16.1176 120.693 15.5561 120.244 15.0909C119.811 14.6257 119.217 14.393 118.463 14.393H115.407V19.1577H118.415Z" fill="white"/>
<path d="M136.121 29C134.469 29 132.945 28.6149 131.549 27.8449C130.17 27.0588 129.071 25.9839 128.253 24.6203C127.434 23.2406 127.025 21.7005 127.025 20C127.025 18.2994 127.434 16.7674 128.253 15.4037C129.071 14.0241 130.17 12.9492 131.549 12.1791C132.945 11.393 134.469 11 136.121 11C137.469 11 138.696 11.2406 139.803 11.7219C140.926 12.1872 141.889 12.8529 142.691 13.7192L140.453 15.9091C139.875 15.2995 139.234 14.8422 138.528 14.5374C137.838 14.2326 137.028 14.0802 136.097 14.0802C135.039 14.0802 134.068 14.3289 133.186 14.8262C132.303 15.3075 131.597 16.0053 131.068 16.9198C130.555 17.8182 130.298 18.8449 130.298 20C130.298 21.1551 130.563 22.1898 131.092 23.1042C131.621 24.0026 132.327 24.7005 133.21 25.1978C134.108 25.6791 135.087 25.9198 136.146 25.9198C137.75 25.9198 139.065 25.4465 140.092 24.5C140.413 24.2112 140.694 23.8422 140.934 23.393C141.175 22.9438 141.351 22.4545 141.464 21.9251H136.049V19.1577H144.496C144.608 19.6069 144.664 20.1123 144.664 20.6738C144.664 21.8128 144.488 22.8716 144.135 23.8502C143.798 24.8288 143.277 25.6871 142.571 26.4251C141.801 27.2593 140.87 27.901 139.779 28.3502C138.688 28.7834 137.469 29 136.121 29Z" fill="white"/>
<path d="M151.478 20.6016L145.678 11.385H149.552L152.994 17.0882H153.186L156.507 11.385H160.429L154.726 20.6016V28.6149H151.478V20.6016Z" fill="white"/>
<path fill-rule="evenodd" clip-rule="evenodd" d="M3 22.8665H10.2445L21.7108 8.28921V17.1334H28.9998L35.9139 8.34344C32.9478 3.35871 27.5035 0 21.3132 0H19.9752C10.6389 0 3.0003 7.63857 3.0003 16.9749V22.8665H3Z" fill="url(#paint0_linear_31804_94875)"/>
<path fill-rule="evenodd" clip-rule="evenodd" d="M36.2456 17.1338H29.0008L17.5348 31.7108V22.8666H10.2462L3.33203 31.6568C6.29786 36.6416 11.7421 40 17.9327 40H19.2711C28.6074 40 36.2459 32.3614 36.2459 23.0251L36.2456 17.1338Z" fill="url(#paint1_linear_31804_94875)"/>
<path fill-rule="evenodd" clip-rule="evenodd" d="M21.7124 8.28979V22.8671H10.2461L21.7124 8.28979Z" fill="white"/>
<path fill-rule="evenodd" clip-rule="evenodd" d="M17.5312 31.7108V17.1338H28.9976L17.5312 31.7108Z" fill="white"/>
<defs>
<linearGradient id="paint0_linear_31804_94875" x1="3" y1="11.4333" x2="35.9139" y2="11.4333" gradientUnits="userSpaceOnUse">
<stop stop-color="#FF512F"/>
<stop offset="1" stop-color="#F09819"/>
</linearGradient>
<linearGradient id="paint1_linear_31804_94875" x1="36.2459" y1="28.7747" x2="3.33203" y2="28.7747" gradientUnits="userSpaceOnUse">
<stop stop-color="#00AACE"/>
<stop offset="1" stop-color="#006BCE"/>
</linearGradient>
</defs>
</svg>
